<svg width="21" height="12" viewBox="0 0 21 12" fill="none" xmlns="http://www.w3.org/2000/svg">
<path fill-rule="evenodd" clip-rule="evenodd" d="M17.2427 4.57739C14.4364 4.71677 11.4395 4.42576 8.61502 4.48615C6.44091 4.50673 4.20494 4.36684 2.03833 4.31091C1.67722 4.30159 0.508946 4.08518 0.511467 5.11512C0.523984 6.04307 1.62228 5.91803 2.0065 5.95534C2.75432 5.97647 3.49964 6.0231 4.24746 6.04423L13.0239 6.20139C14.4452 6.21068 16.002 6.15592 17.3902 6.23923C17.2091 6.5048 16.3019 7.31771 15.9877 7.62185L13.8311 9.57481C13.6037 9.78441 13.2714 10.0096 13.0696 10.2217C12.4667 10.8324 13.1221 11.797 13.9205 11.5657C14.4528 11.4114 15.6685 10.0879 16.1721 9.69915L19.6849 6.30759C19.9123 6.09799 20.2216 5.84485 20.1641 5.3759C20.1485 5.27142 19.8648 4.4716 19.7955 4.38764C19.5874 4.13575 15.3316 1.12251 14.9186 0.850728C14.3363 0.459536 13.5973 -0.178566 13.0844 0.569649C12.4846 1.4124 13.4255 1.83841 13.9615 2.17363C14.4207 2.50139 17.0603 4.32799 17.2427 4.57739Z" fill="#ABFFEB"/>
</svg>
